<?xml version="1.0" standalone="no"?>
<!DOCTYPE svg PUBLIC "-//W3C//DTD SVG 20010904//EN"
 "http://www.w3.org/TR/2001/REC-SVG-20010904/DTD/svg10.dtd">
<svg version="1.0" xmlns="http://www.w3.org/2000/svg"
 width="900.000000pt" height="512.000000pt" viewBox="0 0 900.000000 512.000000"
 preserveAspectRatio="xMidYMid meet">
<metadata>
Created by potrace 1.16, written by Peter Selinger 2001-2019
</metadata>
<g transform="translate(0.000000,512.000000) scale(0.100000,-0.100000)"
fill="#000000" stroke="none">
<path d="M2545 4141 c-68 -31 -115 -96 -115 -157 l0 -24 -225 0 c-259 0 -286
-6 -311 -65 -12 -29 -13 -44 -4 -71 22 -67 -12 -64 825 -64 l757 0 29 -29 c33
-33 37 -67 14 -111 -33 -63 18 -60 -1012 -60 -900 0 -939 -1 -969 -19 -56 -34
-67 -100 -25 -152 l19 -24 837 -5 837 -5 19 -24 c29 -36 25 -94 -10 -133 l-29
-33 -712 -3 c-698 -2 -713 -3 -741 -23 -68 -48 -57 -148 19 -168 24 -7 340
-11 924 -11 l886 0 26 -31 c29 -35 33 -67 11 -108 -33 -64 26 -61 -1153 -61
l-1070 0 -31 -26 c-58 -49 -47 -139 20 -163 22 -8 261 -11 791 -11 525 0 766
-3 780 -11 11 -6 26 -26 34 -45 12 -30 12 -39 0 -69 -8 -19 -30 -44 -48 -55
-31 -19 -50 -20 -330 -20 -164 0 -298 -4 -298 -8 0 -5 -13 -157 -30 -338 -16
-181 -30 -358 -30 -393 0 -62 1 -65 44 -107 l43 -44 240 0 239 0 17 72 c9 40
37 116 63 168 39 80 61 109 133 180 94 93 159 133 284 175 376 126 751 -121
774 -510 l5 -90 1006 3 c744 2 1008 5 1013 14 4 6 10 32 14 57 18 119 89 247
195 351 90 88 159 132 275 172 161 55 318 47 468 -26 185 -89 300 -265 316
-481 3 -49 9 -89 14 -87 4 1 33 2 65 2 45 0 67 6 98 26 76 49 84 72 100 266 7
95 25 303 40 462 40 442 58 398 -354 847 -285 309 -313 337 -376 369 l-69 35
-388 3 c-295 2 -389 6 -389 15 0 7 7 93 15 192 30 372 30 346 6 394 -16 31
-34 48 -64 62 -41 18 -93 19 -1757 19 -1648 0 -1717 -1 -1755 -19z m4318 -851
c35 -19 109 -93 287 -289 132 -145 240 -266 240 -270 0 -3 -268 -5 -595 -3
l-594 2 5 48 c2 26 9 106 14 177 5 72 15 183 21 248 l12 118 281 -3 c279 -3
281 -3 329 -28z"/>
<path d="M3365 1955 c-80 -17 -122 -35 -193 -84 -270 -183 -323 -559 -110
-774 72 -72 156 -113 266 -129 75 -11 91 -10 179 10 117 27 183 63 273 152
211 210 215 543 8 724 -63 55 -120 83 -205 101 -82 18 -138 18 -218 0z m193
-264 c148 -76 172 -270 47 -393 -142 -140 -358 -95 -415 86 -41 130 60 284
215 327 42 11 108 3 153 -20z"/>
<path d="M6670 1959 c-180 -35 -343 -170 -413 -343 -30 -75 -32 -89 -32 -197
l0 -116 43 -85 c69 -140 180 -222 335 -248 239 -41 490 104 588 339 41 98 51
234 24 327 -35 122 -126 234 -231 284 -90 44 -211 59 -314 39z m190 -274 c88
-45 134 -148 111 -250 -39 -172 -224 -269 -372 -194 -137 69 -165 257 -56 376
92 100 205 125 317 68z"/>
</g>
</svg>
